<?xml version="1.0" encoding="UTF-8"?>
<mxfile host="app.diagrams.net">
  <diagram name="Order Status State Machine">
    <mxGraphModel dx="1000" dy="600" grid="1" gridSize="10">
      <root>
        <mxCell id="0"/>
        <mxCell id="1" parent="0"/>
        <!-- States as ellipses -->
        <mxCell id="s1" value="Pending" style="ellipse;whiteSpace=wrap;html=1;fillColor=#dae8fc;strokeColor=#6c8ebf;" vertex="1" parent="1">
          <mxGeometry x="60" y="120" width="120" height="60" as="geometry"/>
        </mxCell>
        <mxCell id="s2" value="Preparing" style="ellipse;whiteSpace=wrap;html=1;fillColor=#e1d5e7;strokeColor=#9673a6;" vertex="1" parent="1">
          <mxGeometry x="260" y="120" width="120" height="60" as="geometry"/>
        </mxCell>
        <mxCell id="s3" value="ReadyForPickup" style="ellipse;whiteSpace=wrap;html=1;fillColor=#d5e8d4;strokeColor=#82b366;" vertex="1" parent="1">
          <mxGeometry x="460" y="40" width="140" height="60" as="geometry"/>
        </mxCell>
        <mxCell id="s4" value="ReadyForDelivery" style="ellipse;whiteSpace=wrap;html=1;fillColor=#d5e8d4;strokeColor=#82b366;" vertex="1" parent="1">
          <mxGeometry x="460" y="200" width="140" height="60" as="geometry"/>
        </mxCell>
        <mxCell id="s5" value="OutForDelivery" style="ellipse;whiteSpace=wrap;html=1;fillColor=#ffe6cc;strokeColor=#d79b00;" vertex="1" parent="1">
          <mxGeometry x="680" y="200" width="140" height="60" as="geometry"/>
        </mxCell>
        <mxCell id="s6" value="Delivered" style="ellipse;whiteSpace=wrap;html=1;fillColor=#f8cecc;strokeColor=#b85450;" vertex="1" parent="1">
          <mxGeometry x="900" y="140" width="120" height="60" as="geometry"/>
        </mxCell>
        <mxCell id="s7" value="UnableToDeliver" style="ellipse;whiteSpace=wrap;html=1;fillColor=#f8cecc;strokeColor=#b85450;" vertex="1" parent="1">
          <mxGeometry x="900" y="240" width="140" height="60" as="geometry"/>
        </mxCell>
        <!-- Arrows -->
        <mxCell id="e1" style="endArrow=block;html=1;" edge="1" source="s1" target="s2" parent="1"><mxGeometry relative="1" as="geometry"/></mxCell>
        <mxCell id="e2" style="endArrow=block;html=1;" edge="1" source="s2" target="s3" parent="1"><mxGeometry relative="1" as="geometry"/></mxCell>
        <mxCell id="e3" style="endArrow=block;html=1;" edge="1" source="s2" target="s4" parent="1"><mxGeometry relative="1" as="geometry"/></mxCell>
        <mxCell id="e4" style="endArrow=block;html=1;" edge="1" source="s4" target="s5" parent="1"><mxGeometry relative="1" as="geometry"/></mxCell>
        <mxCell id="e5" style="endArrow=block;html=1;" edge="1" source="s5" target="s6" parent="1"><mxGeometry relative="1" as="geometry"/></mxCell>
        <mxCell id="e6" style="endArrow=block;html=1;dashed=1;" edge="1" source="s5" target="s7" parent="1"><mxGeometry relative="1" as="geometry"/></mxCell>
      </root>
    </mxGraphModel>
  </diagram>
</mxfile>
